<?xml version="1.0" standalone="no"?>
<!DOCTYPE svg PUBLIC "-//W3C//DTD SVG 20010904//EN"
 "http://www.w3.org/TR/2001/REC-SVG-20010904/DTD/svg10.dtd">
<svg version="1.0" xmlns="http://www.w3.org/2000/svg"
 width="48.000000pt" height="48.000000pt" viewBox="0 0 48.000000 48.000000"
 preserveAspectRatio="xMidYMid meet">

<g transform="translate(0.000000,48.000000) scale(0.100000,-0.100000)"
fill="#000000" stroke="none">
<path d="M215 435 c-5 -2 -22 -6 -37 -9 -35 -8 -94 -59 -115 -100 -20 -37 -21
-131 -3 -166 37 -73 101 -113 180 -113 79 0 143 40 180 113 18 34 17 129 -2
165 -18 33 -62 77 -93 93 -23 11 -95 23 -110 17z m-55 -150 c8 -37 28 -75 40
-75 5 0 10 24 12 53 3 44 6 52 23 52 15 0 21 -8 23 -32 4 -39 25 -35 48 8 8
17 23 29 34 29 26 0 26 -24 -1 -61 l-21 -29 26 -31 c14 -17 26 -37 26 -45 0
-24 -35 -15 -63 16 -33 37 -47 38 -47 5 0 -22 -4 -25 -34 -25 -61 0 -116 66
-116 140 0 27 3 31 22 28 16 -2 24 -12 28 -33z"/>
</g>
</svg>
